<?xml version="1.0" encoding="utf-8"?>
<!-- Generator: Adobe Illustrator 22.0.1, SVG Export Plug-In . SVG Version: 6.00 Build 0)  -->
<svg version="1.1" id="Layer_1" xmlns="http://www.w3.org/2000/svg" xmlns:xlink="http://www.w3.org/1999/xlink" x="0px" y="0px"
	 viewBox="0 0 1000 410.5" style="enable-background:new 0 0 1000 410.5;" xml:space="preserve">
<style type="text/css">
	.st0{fill:#030302;}
</style>
<path class="st0" d="M496.7,79c-2.8,0-5,0.8-6.6,2.3c-1.6,1.5-2.4,3.7-2.4,6.5v25.6c0,5.9,3,8.8,9.1,8.8c1.4,0,2.6-0.1,3.6-0.4
	c1-0.3,1.9-0.6,2.7-1.1c0.8-0.5,1.6-1.1,2.3-1.7c0.7-0.7,1.5-1.5,2.4-2.3l6.6,7.8c-2.5,2.7-5.2,4.6-8,5.8c-2.8,1.2-6,1.9-9.6,1.9
	c-6.1,0-11-1.6-14.7-4.7c-3.7-3.1-5.5-7.8-5.5-14V87.9c0-2.9,0.5-5.5,1.5-7.8c1-2.3,2.4-4.3,4.2-5.9c1.8-1.6,3.9-2.9,6.4-3.7
	c2.5-0.9,5.2-1.3,8.1-1.3c2.2,0,4.1,0.2,5.8,0.5c1.7,0.3,3.3,0.8,4.7,1.5c1.4,0.7,2.8,1.6,4,2.8c1.2,1.1,2.4,2.5,3.5,4.1l-7.1,6.9
	c-0.8-1.4-2.2-2.7-4-4C501.8,79.8,499.5,79.1,496.7,79"/>
<polygon class="st0" points="539.4,105 539.4,121.4 560.3,121.4 560.3,131.3 528.6,131.3 528.6,70.1 558.7,70.1 558.7,80 539.4,80 
	539.4,95.5 555.7,95.5 555.7,105 "/>
<polygon class="st0" points="608.2,70.1 618.1,70.1 618.1,131.3 600.5,131.3 584.7,82.6 584.7,131.3 574.8,131.3 574.8,70.1 
	590.8,70.1 608.2,119.6 "/>
<polygon class="st0" points="630.2,80 630.2,70 671.3,70 671.3,80 656.3,80 656.3,131.3 645.1,131.3 645.1,80 "/>
<path class="st0" d="M717.7,100.1c-1.7,2.2-4.2,3.9-7.3,5.1l12,26H711l-11.4-24.8h-5.1v24.8h-11.2V70h20.5c5.4,0,9.5,1.3,12.3,3.8
	c2.8,2.5,4.2,6.5,4.2,11.9v5.8C720.3,95.1,719.4,98,717.7,100.1 M694.4,96.5h9.4c1.6,0,2.9-0.4,3.9-1.2c1-0.8,1.4-2.1,1.4-3.8v-5.9
	c0-1.9-0.4-3.3-1.3-4.3c-0.8-0.9-2.2-1.4-4.1-1.4h-9.3V96.5z"/>
<path class="st0" d="M764,70.4c2.6,0.8,4.8,2.1,6.7,3.6c1.9,1.6,3.4,3.5,4.5,5.9c1.1,2.3,1.7,4.9,1.7,7.9v25.7
	c0,3.1-0.5,5.7-1.6,8.1c-1.1,2.3-2.6,4.3-4.5,5.8c-1.9,1.6-4.1,2.8-6.7,3.6c-2.6,0.8-5.3,1.2-8.3,1.2h-1.2c-3.1,0-5.9-0.4-8.5-1.2
	c-2.6-0.8-4.8-2-6.7-3.5c-1.9-1.6-3.4-3.6-4.4-5.9c-1-2.3-1.6-5-1.6-8.1V87.8c0-2.9,0.6-5.5,1.7-7.8c1.1-2.3,2.6-4.3,4.5-5.8
	c1.9-1.6,4.1-2.8,6.7-3.7c2.6-0.9,5.3-1.3,8.2-1.3h1.3C758.8,69.2,761.5,69.6,764,70.4 M765.7,87.9c0-2.8-0.9-5-2.8-6.5
	c-1.9-1.5-4.2-2.3-7.1-2.3h-1.3c-2.8,0-5.2,0.8-7.1,2.3c-1.9,1.5-2.8,3.7-2.8,6.5v25.7c0,3.1,0.9,5.3,2.7,6.7
	c1.8,1.4,4.2,2.1,7.3,2.1h1.2c3.1,0,5.5-0.7,7.2-2.1c1.8-1.4,2.7-3.6,2.7-6.7V87.9z"/>
<path class="st0" d="M494.4,175.2c6.2,0,11,1.6,14.4,4.9c3.4,3.2,5,7.7,5,13.2v25.1c0,3.2-0.5,6-1.5,8.3c-1,2.3-2.4,4.2-4.1,5.6
	c-1.7,1.4-3.8,2.5-6.2,3.1c-2.4,0.7-5,1-7.9,1h-15.6v-61.3H494.4z M507.1,193.2c0-2.1-0.3-3.9-1-5.4c-0.7-1.5-1.6-2.7-2.8-3.7
	c-1.2-1-2.5-1.6-4.1-2.1c-1.5-0.4-3.2-0.6-4.9-0.6h-9.2v48.7h8.8c4.2,0,7.4-1,9.7-3.1c2.3-2.1,3.4-5,3.4-8.7V193.2z"/>
<polygon class="st0" points="538.4,208.2 538.4,230.1 560.5,230.1 560.5,236.4 531.7,236.4 531.7,175.2 558.8,175.2 558.8,181.5 
	538.4,181.5 538.4,202.1 555.6,202.1 555.6,208.2 "/>
<path d="M594.3,184.2c-2.8,0-5,0.8-6.6,2.3c-1.6,1.5-2.4,3.7-2.4,6.5v25.6c0,5.9,3,8.8,9.1,8.8c1.4,0,2.6-0.1,3.6-0.4
	c1-0.3,1.9-0.6,2.7-1.1c0.8-0.5,1.6-1.1,2.3-1.8c0.7-0.7,1.5-1.4,2.4-2.3l6.6,7.8c-2.5,2.6-5.2,4.6-8,5.8c-2.8,1.2-6,1.8-9.6,1.8
	c-6.1,0-11-1.6-14.7-4.7c-3.7-3.2-5.5-7.8-5.5-14V193c0-2.9,0.5-5.5,1.5-7.8c1-2.3,2.4-4.3,4.2-5.9c1.8-1.6,3.9-2.9,6.4-3.7
	c2.5-0.9,5.2-1.3,8.1-1.3c2.2,0,4.1,0.1,5.8,0.4c1.7,0.3,3.3,0.8,4.7,1.5c1.4,0.7,2.8,1.6,4,2.8c1.2,1.1,2.4,2.5,3.5,4.2l-7.1,6.9
	c-0.8-1.4-2.2-2.7-4-4C599.3,184.9,597,184.2,594.3,184.2"/>
<path d="M657.6,175.2h11.2v42.7c0,3.2-0.5,6-1.6,8.4c-1.1,2.4-2.5,4.4-4.4,6c-1.9,1.6-4.1,2.8-6.7,3.7c-2.6,0.8-5.5,1.3-8.7,1.3
	c-3.2,0-6.1-0.4-8.7-1.2c-2.6-0.8-4.9-2-6.8-3.6c-1.9-1.6-3.3-3.6-4.4-6.1c-1-2.4-1.5-5.2-1.5-8.4v-42.7h11.2v42.7
	c0,3.2,0.9,5.6,2.7,7.1c1.8,1.5,4.2,2.3,7.4,2.3c3.2,0,5.7-0.8,7.5-2.3c1.8-1.5,2.7-3.9,2.7-7.1V175.2z"/>
<polygon points="696.7,175.2 696.7,226.5 719.4,226.5 719.4,236.3 685.9,236.3 685.9,175.2 "/>
<polygon points="720.7,185.1 720.7,175.2 761.8,175.2 761.8,185.1 746.8,185.1 746.8,236.4 735.7,236.4 735.7,185.1 "/>
<path d="M805.4,175.2h11.2v42.7c0,3.2-0.5,6-1.6,8.4c-1.1,2.4-2.5,4.4-4.4,6c-1.9,1.6-4.1,2.8-6.7,3.7c-2.6,0.8-5.5,1.3-8.7,1.3
	c-3.2,0-6.1-0.4-8.7-1.2c-2.6-0.8-4.9-2-6.8-3.6c-1.9-1.6-3.3-3.6-4.4-6.1c-1-2.4-1.5-5.2-1.5-8.4v-42.7h11.2v42.7
	c0,3.2,0.9,5.6,2.7,7.1c1.8,1.5,4.2,2.3,7.4,2.3c3.2,0,5.7-0.8,7.5-2.3c1.8-1.5,2.7-3.9,2.7-7.1V175.2z"/>
<path d="M868,205.2c-1.7,2.2-4.2,3.9-7.3,5.1l12,26h-11.3l-11.4-24.8h-5.1v24.8h-11.2v-61.2h20.5c5.4,0,9.5,1.3,12.3,3.8
	c2.8,2.5,4.2,6.5,4.2,11.9v5.9C870.5,200.2,869.7,203,868,205.2 M844.7,201.6h9.4c1.6,0,2.9-0.4,3.9-1.2c1-0.8,1.4-2.1,1.4-3.8v-5.8
	c0-1.9-0.4-3.3-1.3-4.3c-0.8-0.9-2.2-1.4-4.1-1.4h-9.3V201.6z"/>
<path d="M911.6,175l15.9,61.4h-11.3l-3.5-14.5h-16.1l-3.6,14.5h-11.4l16.4-61.4H911.6z M910.3,212.9l-5.7-26.5l-5.8,26.5H910.3z"/>
<path d="M496.1,280.3c6.3,0,11.2,1.5,14.9,4.6c3.6,3.1,5.4,7.7,5.4,14v23.9c0,6.6-1.8,11.4-5.5,14.3c-3.7,2.9-8.8,4.4-15.4,4.4
	h-16.9v-61.3H496.1z M505.5,298.9c0-3.1-0.8-5.3-2.4-6.7c-1.6-1.4-4-2.1-7.1-2.1h-6.8v41.5h6.1c3,0,5.5-0.7,7.4-2.1
	c1.9-1.4,2.8-3.6,2.8-6.7V298.9z"/>
<rect x="534.7" y="280.3" width="11.2" height="61.2"/>
<path d="M584.1,307.6h20.7v27c-2.9,2.5-5.9,4.4-9.2,5.8c-3.2,1.3-6.7,2-10.4,2c-3,0-5.8-0.4-8.3-1.2c-2.5-0.8-4.8-2-6.6-3.6
	c-1.9-1.6-3.3-3.6-4.4-5.9c-1-2.3-1.6-5-1.6-8v-25.6c0-2.9,0.5-5.5,1.6-7.8c1.1-2.3,2.6-4.3,4.4-5.9c1.9-1.6,4.1-2.9,6.6-3.7
	c2.5-0.9,5.3-1.3,8.1-1.3c4.3,0,7.9,0.8,10.8,2.3c3,1.5,5.5,3.7,7.7,6.6l-6.9,7.7c-1.5-1.7-3.3-3.3-5.3-4.6c-2-1.3-4.1-2-6.3-2
	c-2.8,0-5.2,0.8-7.1,2.3c-1.9,1.6-2.9,3.7-2.9,6.5v25.6c0,3,0.9,5.2,2.8,6.7c1.8,1.4,4.3,2.2,7.3,2.2c1.8,0,3.3-0.1,4.6-0.5
	c1.3-0.3,2.7-1,4.1-2.2v-13.2h-9.7V307.6z"/>
<rect x="623.8" y="280.3" width="11.2" height="61.2"/>
<polygon points="650.2,290.2 650.2,280.3 691.4,280.3 691.4,290.2 676.3,290.2 676.3,341.5 665.2,341.5 665.2,290.2 "/>
<path d="M725,280.1l15.9,61.4h-11.3l-3.5-14.5H710l-3.6,14.5H695l16.4-61.4H725z M723.8,318l-5.7-26.5l-5.8,26.5H723.8z"/>
<polygon points="764.7,280.3 764.7,331.6 787.4,331.6 787.4,341.5 753.9,341.5 753.9,280.3 "/>
<path d="M372.7,210H252.1c-2.4,0-4.4-2-4.4-4.4c0-2.4,2-4.4,4.4-4.4h120.6c2.4,0,4.4,2,4.4,4.4C377.1,208,375.1,210,372.7,210"/>
<path d="M359.8,290.8c-0.6,0-1.1-0.1-1.7-0.3c-2.2-0.9-3.3-3.5-2.4-5.8l25.6-61.8c0.9-2.3,3.5-3.3,5.8-2.4c2.2,0.9,3.3,3.5,2.4,5.8
	L363.9,288C363.2,289.7,361.5,290.8,359.8,290.8"/>
<path d="M337.3,295.2c-1.1,0-2.3-0.4-3.1-1.3L249,208.7c-1.7-1.7-1.7-4.5,0-6.2c1.7-1.7,4.5-1.7,6.2,0l85.2,85.2
	c1.7,1.7,1.7,4.5,0,6.2C339.6,294.8,338.5,295.2,337.3,295.2"/>
<path d="M270.8,343.4c-1.7,0-3.4-1-4.1-2.7c-0.9-2.3,0.1-4.8,2.4-5.8l62.1-25.7c2.3-0.9,4.8,0.1,5.8,2.4c0.9,2.3-0.1,4.8-2.4,5.8
	l-62.1,25.7C271.9,343.3,271.4,343.4,270.8,343.4"/>
<path d="M252.1,330.7c-2.4,0-4.4-2-4.4-4.4V205.6c0-2.4,2-4.4,4.4-4.4c2.4,0,4.4,2,4.4,4.4v120.7
	C256.5,328.8,254.6,330.7,252.1,330.7"/>
<path d="M233.2,343.3c-0.6,0-1.1-0.1-1.7-0.3l-62-25.7c-2.3-0.9-3.3-3.5-2.4-5.8c0.9-2.3,3.5-3.3,5.8-2.4l62,25.7
	c2.2,0.9,3.3,3.5,2.4,5.8C236.6,342.3,235,343.3,233.2,343.3"/>
<path d="M252.1,210H131.5c-2.4,0-4.4-2-4.4-4.4c0-2.4,2-4.4,4.4-4.4h120.6c2.4,0,4.4,2,4.4,4.4C256.5,208,254.6,210,252.1,210"/>
<path d="M118.8,191c-0.6,0-1.1-0.1-1.7-0.3c-2.3-0.9-3.3-3.5-2.4-5.8l25.6-61.8c0.9-2.2,3.5-3.3,5.8-2.4c2.2,0.9,3.3,3.5,2.4,5.8
	l-25.6,61.8C122.2,190,120.6,191,118.8,191"/>
<path d="M252.1,210c-1.1,0-2.3-0.4-3.1-1.3l-85.3-85.3c-1.7-1.7-1.7-4.5,0-6.2c1.7-1.7,4.5-1.7,6.2,0l85.3,85.3
	c1.7,1.7,1.7,4.5,0,6.2C254.4,209.6,253.3,210,252.1,210"/>
<path d="M171.3,102.3c-1.7,0-3.4-1-4.1-2.7c-0.9-2.3,0.1-4.8,2.4-5.8l61.8-25.6c2.3-0.9,4.8,0.1,5.8,2.4c0.9,2.3-0.1,4.8-2.4,5.8
	L173,102C172.5,102.2,171.9,102.3,171.3,102.3"/>
<path d="M252.1,210c-2.4,0-4.4-2-4.4-4.4V85c0-2.4,2-4.4,4.4-4.4c2.4,0,4.4,2,4.4,4.4v120.6C256.5,208,254.6,210,252.1,210"/>
<path d="M385.4,191c-1.7,0-3.4-1-4.1-2.7l-25.6-61.8c-0.9-2.3,0.1-4.8,2.4-5.8c2.3-0.9,4.8,0.1,5.8,2.4l25.6,61.7
	c0.9,2.3-0.1,4.8-2.4,5.8C386.5,190.9,386,191,385.4,191"/>
<path d="M393.3,230.6c-13.8,0-25-11.2-25-25c0-13.8,11.2-25,25-25c13.8,0,25,11.2,25,25C418.3,219.4,407.1,230.6,393.3,230.6
	 M393.3,189.4c-8.9,0-16.2,7.3-16.2,16.2c0,8.9,7.3,16.2,16.2,16.2c8.9,0,16.2-7.3,16.2-16.2C409.5,196.7,402.2,189.4,393.3,189.4"
	/>
<path d="M351.9,330.4c-13.8,0-25-11.2-25-25c0-13.8,11.2-25,25-25c13.8,0,25,11.2,25,25C376.9,319.2,365.7,330.4,351.9,330.4
	 M351.9,289.2c-8.9,0-16.2,7.3-16.2,16.2c0,8.9,7.3,16.2,16.2,16.2c8.9,0,16.2-7.3,16.2-16.2C368.1,296.5,360.8,289.2,351.9,289.2"
	/>
<path d="M252.1,371.7c-13.8,0-25-11.2-25-25c0-13.8,11.2-25,25-25c13.8,0,25,11.2,25,25C277.1,360.5,265.9,371.7,252.1,371.7
	 M252.1,330.6c-8.9,0-16.2,7.3-16.2,16.2c0,8.9,7.3,16.2,16.2,16.2c8.9,0,16.2-7.3,16.2-16.2C268.3,337.8,261,330.6,252.1,330.6"/>
<path d="M152.3,330.4c-13.8,0-25-11.2-25-25c0-13.8,11.2-25,25-25c13.8,0,25,11.2,25,25C177.3,319.2,166.1,330.4,152.3,330.4
	 M152.3,289.2c-8.9,0-16.2,7.3-16.2,16.2c0,8.9,7.3,16.2,16.2,16.2c8.9,0,16.2-7.3,16.2-16.2C168.5,296.5,161.2,289.2,152.3,289.2"
	/>
<path d="M111,230.6c-13.8,0-25-11.2-25-25c0-13.8,11.2-25,25-25s25,11.2,25,25C136,219.4,124.8,230.6,111,230.6 M111,189.4
	c-8.9,0-16.2,7.3-16.2,16.2c0,8.9,7.3,16.2,16.2,16.2s16.2-7.3,16.2-16.2C127.2,196.7,119.9,189.4,111,189.4"/>
<path d="M152.3,130.8c-13.8,0-25-11.2-25-25c0-13.8,11.2-25,25-25c13.8,0,25,11.2,25,25C177.3,119.6,166.1,130.8,152.3,130.8
	 M152.3,89.6c-8.9,0-16.2,7.3-16.2,16.2c0,8.9,7.3,16.2,16.2,16.2c8.9,0,16.2-7.3,16.2-16.2C168.5,96.9,161.2,89.6,152.3,89.6"/>
<path d="M252.1,89.4c-13.8,0-25-11.2-25-25c0-13.8,11.2-25,25-25c13.8,0,25,11.2,25,25C277.1,78.2,265.9,89.4,252.1,89.4
	 M252.1,48.3c-8.9,0-16.2,7.3-16.2,16.2c0,8.9,7.3,16.2,16.2,16.2c8.9,0,16.2-7.3,16.2-16.2C268.3,55.5,261,48.3,252.1,48.3"/>
<path d="M351.9,130.8c-13.8,0-25-11.2-25-25c0-13.8,11.2-25,25-25c13.8,0,25,11.2,25,25C376.9,119.6,365.7,130.8,351.9,130.8
	 M351.9,89.6c-8.9,0-16.2,7.3-16.2,16.2c0,8.9,7.3,16.2,16.2,16.2c8.9,0,16.2-7.3,16.2-16.2C368.1,96.9,360.8,89.6,351.9,89.6"/>
</svg>
